<svg version="1.0" xmlns="http://www.w3.org/2000/svg" viewBox="0 0 450.000000 450.000000" preserveAspectRatio="meet">
  <g transform="translate(0.000000,450.000000) scale(0.050000,-0.050000)" fill="#ffffff" stroke="none">
    <path d="M1631 6542 c-6 -11 -38 -25 -71 -32 -33 -7 -60 -21 -60 -31 0 -10 -22 -24 -50 -31 -27 -7 -45 -20 -39 -30 6 -10 2 -19 -10 -20 -11 -2 -31 -4 -42 -5 -12 -2 -39 -25 -60 -53 -21 -27 -38 -41 -39 -30 -1 34 -99 -138 -99 -175 -1 -19 -8 -35 -16 -35 -9 0 -24 -19 -35 -43 -11 -23 -28 -40 -38 -38 -10 2 -24 -6 -31 -18 -8 -12 -42 -24 -76 -27 -33 -2 -57 -11 -52 -19 5 -8 1 -15 -8 -15 -27 0 -152 -117 -156 -145 -2 -14 -24 -68 -49 -121 -47 -99 -46 -314 1 -331 10 -3 19 -18 19 -31 0 -14 22 -46 49 -71 28 -26 44 -56 37 -67 -7 -11 -3 -15 8 -8 11 7 37 -5 56 -26 20 -22 54 -40 75 -40 26 0 36 -10 28 -29 -7 -18 -1 -25 14 -19 14 5 42 -9 63 -32 28 -31 41 -35 53 -15 12 18 16 16 17 -10 0 -19 9 -35 20 -35 12 0 7 -21 -10 -47 -16 -25 -24 -52 -17 -60 8 -7 4 -13 -7 -13 -12 0 -21 -11 -21 -25 3 -59 -6 -97 -20 -88 -8 5 -14 -57 -12 -139 1 -105 -4 -144 -20 -134 -17 10 -17 6 0 -15 14 -18 23 -109 23 -229 0 -110 10 -229 21 -265 11 -36 14 -65 7 -65 -8 0 0 -9 16 -20 19 -12 21 -20 6 -20 -15 0 -20 -14 -12 -33 10 -27 6 -29 -25 -12 -23 13 -55 14 -83 3 -25 -9 -46 -12 -46 -7 0 6 -17 1 -39 -10 -21 -12 -43 -13 -49 -4 -26 43 -222 -37 -306 -125 l-85 -87 -2 -267 c-2 -177 5 -269 19 -274 12 -4 22 -20 22 -35 0 -16 35 -51 78 -78 43 -27 84 -59 91 -70 8 -12 31 -21 52 -21 22 0 39 -10 39 -21 0 -12 -9 -16 -20 -9 -12 7 -20 -13 -20 -49 0 -33 -8 -61 -19 -61 -10 0 -19 -16 -20 -35 -1 -19 -5 -67 -9 -107 -7 -64 -1 -75 60 -108 37 -20 68 -45 68 -55 0 -11 17 -15 37 -10 21 5 52 1 70 -9 24 -13 33 -10 33 13 0 38 58 40 111 3 43 -30 598 -42 579 -13 -35 58 95 83 171 33 42 -28 82 -43 89 -32 29 48 157 60 200 20 46 -43 410 -62 410 -21 0 35 81 45 126 15 38 -24 48 -24 70 -1 36 38 232 36 264 -2 21 -26 31 -26 83 1 56 29 137 23 137 -10 0 -18 10 -20 190 -28 105 -4 154 3 198 28 59 36 112 31 112 -9 0 -33 326 -30 365 3 31 26 117 25 137 -2 6 -8 37 -1 70 15 73 38 78 38 119 -2 36 -37 198 -46 334 -20 44 9 75 7 75 -4 0 -11 34 -16 75 -12 41 5 114 10 162 12 66 3 94 15 117 50 17 26 41 41 53 34 13 -8 16 -6 8 3 -8 9 -2 31 14 49 32 35 22 181 -12 181 -31 0 -18 30 26 57 57 36 73 7 64 -118 -4 -61 1 -99 14 -99 12 0 16 -8 10 -18 -6 -10 29 -44 79 -75 49 -31 90 -61 90 -67 0 -22 233 -7 278 18 44 24 47 23 35 -11 -11 -29 -6 -28 22 7 33 43 106 36 79 -7 -14 -24 329 -10 358 15 13 10 39 13 59 5 27 -11 32 -7 19 15 -10 17 -1 14 24 -7 36 -32 46 -33 97 -6 50 26 59 26 82 -5 15 -20 26 -24 26 -9 1 17 15 19 51 5 56 -21 102 -10 117 30 8 21 28 22 93 5 53 -13 79 -29 72 -46 -5 -14 3 -30 18 -36 19 -7 24 -1 17 19 -7 16 -4 27 6 24 31 -9 205 52 195 68 -6 9 -1 16 11 16 11 0 21 -9 21 -20 0 -11 11 -20 23 -20 13 0 39 -14 57 -30 30 -27 41 -27 89 -2 57 29 111 24 111 -11 0 -11 9 -14 20 -7 11 7 20 4 20 -7 0 -10 49 -15 111 -11 86 6 108 2 96 -17 -11 -18 -6 -18 18 2 19 15 52 21 79 13 32 -9 38 -7 19 6 -42 29 13 42 87 21 181 -52 430 3 430 95 0 13 14 29 32 36 30 11 30 17 0 62 -18 28 -26 50 -17 50 8 0 2 9 -15 20 -27 17 -27 19 0 20 27 1 27 3 0 20 -27 18 -27 22 0 40 17 11 22 20 13 20 -10 0 -2 24 17 52 19 29 26 48 15 41 -10 -6 -28 20 -40 58 -15 49 -15 69 0 69 12 0 16 5 10 12 -7 7 10 33 38 59 27 25 49 53 48 63 -1 9 12 32 29 51 16 20 30 44 30 55 0 11 10 20 21 20 12 0 16 9 9 20 -7 11 -5 20 5 20 14 0 18 110 5 140 -3 6 -4 17 -2 25 1 8 -8 15 -19 15 -12 0 -16 9 -9 20 7 11 3 20 -8 20 -11 0 -16 13 -9 30 6 16 1 30 -12 30 -25 0 -81 48 -81 70 0 21 -55 70 -79 70 -11 0 -21 14 -21 30 0 17 -18 30 -40 30 -22 0 -40 9 -40 20 0 11 -22 20 -50 20 -27 0 -50 10 -50 22 0 12 14 17 31 10 18 -6 26 -3 19 8 -7 11 -40 20 -75 20 -34 0 -56 6 -49 13 8 7 4 25 -9 40 -12 15 -16 27 -9 27 7 0 2 20 -12 45 -13 25 -23 52 -20 60 2 8 -9 15 -26 15 -17 0 -29 7 -28 15 8 49 -6 85 -33 85 -17 0 -26 9 -19 20 7 11 2 20 -11 20 -17 0 -17 8 2 31 14 17 17 30 7 28 -41 -8 -70 2 -58 21 7 11 -2 20 -20 20 -18 0 -27 9 -20 20 7 11 -7 40 -30 64 -23 25 -33 48 -21 52 11 4 4 24 -15 45 -21 22 -35 66 -33 107 1 39 -5 66 -14 60 -27 -16 -20 61 8 91 20 21 20 24 0 13 -16 -9 -25 -1 -25 23 0 20 11 49 25 64 17 18 18 23 1 14 -31 -18 -30 146 1 186 18 22 17 25 -2 14 -34 -21 -34 149 0 186 20 21 20 24 0 13 -17 -10 -25 0 -25 28 0 23 8 38 17 32 9 -6 16 2 16 18 0 16 -7 24 -17 18 -25 -16 -15 258 11 291 17 21 17 25 0 15 -13 -8 -27 3 -33 27 -6 22 -13 46 -15 54 -7 22 -127 124 -145 125 -9 0 -12 8 -6 17 6 9 -49 19 -123 21 -73 2 -140 9 -149 14 -9 6 -216 9 -461 8 -245 -2 -458 -2 -475 -2 -181 5 -622 -7 -834 -23 -13 -1 -20 -9 -14 -18 6 -9 -2 -17 -16 -17 -37 0 -113 -96 -156 -195 -22 -52 -76 -60 -93 -13 -7 17 -35 39 -62 50 -33 12 -45 29 -37 49 6 17 4 26 -5 21 -10 -6 -68 -12 -130 -14 -62 -3 -113 -10 -113 -17 0 -15 -165 -65 -191 -59 -11 3 -59 -2 -109 -10 -94 -14 -336 50 -277 74 15 7 -19 8 -76 4 -135 -9 -356 -135 -312 -178 6 -7 3 -12 -8 -12 -24 0 -22 -59 2 -98 11 -19 5 -37 -20 -55 -27 -20 -29 -27 -8 -27 24 -1 24 -4 2 -18 -23 -14 -23 -19 0 -28 20 -8 20 -11 -4 -12 -17 -1 -51 16 -74 38 -24 22 -57 40 -74 40 -17 0 -31 10 -31 22 0 13 -21 19 -50 13 -27 -5 -50 -2 -50 8 0 10 -23 14 -52 8 -38 -7 -66 6 -110 51 -32 33 -58 52 -59 44 0 -9 -13 1 -30 23 -16 21 -29 32 -29 24 0 -16 -103 46 -123 74 -7 10 -59 18 -115 18 -56 0 -102 6 -102 13 0 19 -299 13 -365 -6 -33 -10 -65 -8 -80 4 -14 11 -63 18 -110 16 -47 -2 -86 3 -88 12 -14 68 -6 196 14 245 27 64 -6 188 -65 248 -15 14 -20 36 -13 48 7 12 4 15 -8 8 -12 -8 -28 4 -35 26 -28 88 -208 221 -300 221 -91 0 -220 43 -197 66 8 8 8 14 2 14 -7 0 -18 -8 -24 -18z m61 -232 c18 -71 97 -87 156 -32 65 61 154 0 113 -77 -37 -69 9 -148 76 -131 54 14 82 -14 83 -83 0 -29 -16 -47 -50 -55 -72 -18 -90 -107 -30 -152 44 -33 44 -35 10 -87 -40 -61 -46 -62 -97 -23 -60 45 -135 -13 -120 -92 9 -44 5 -58 -19 -58 -17 0 -45 -6 -63 -12 -23 -9 -38 5 -53 49 -26 74 -91 90 -151 37 -75 -65 -153 -1 -107 87 32 59 -15 119 -95 119 -43 0 -65 10 -65 28 0 16 -5 42 -11 58 -8 21 6 34 47 43 76 17 101 105 42 147 -75 52 -19 167 61 124 74 -39 148 4 137 80 -9 62 5 76 79 78 31 2 48 -13 57 -48z m-476 -500 c11 -61 61 -92 105 -65 55 35 112 -17 70 -64 -39 -43 -18 -117 36 -125 31 -4 43 -20 43 -56 0 -40 -9 -49 -44 -44 -63 9 -101 -67 -57 -115 49 -54 -9 -99 -78 -61 -60 32 -111 14 -111 -39 0 -33 -13 -41 -62 -41 -53 0 -61 6 -52 40 14 56 -50 90 -105 56 -60 -38 -114 36 -65 90 40 45 12 101 -55 111 -30 4 -40 16 -33 36 7 17 12 39 12 49 0 10 22 18 49 18 57 0 87 67 49 112 -40 49 27 107 76 65 49 -41 100 -25 115 35 15 62 97 61 107 -2z m6220 -141 c44 -31 44 -34 44 -641 l0 -609 183 -273 c204 -306 217 -334 163 -363 -49 -26 -2721 -27 -2770 -1 -54 29 -46 53 76 235 l112 168 -77 78 c-232 238 -436 231 -684 -23 -241 -246 -475 -287 -658 -116 l-45 43 0 -70 c0 -45 -14 -84 -40 -107 -25 -22 -40 -62 -40 -102 0 -81 -59 -128 -160 -128 -94 0 -160 48 -160 116 l0 54 -880 0 -880 0 0 -48 c0 -77 -55 -122 -149 -122 -109 0 -171 45 -171 123 0 33 -18 84 -40 112 -57 72 -59 631 -3 755 34 75 147 192 235 242 33 20 28 24 -45 37 -189 32 -181 148 11 166 90 9 103 5 117 -33 15 -39 26 -31 130 96 181 220 189 222 792 222 626 0 618 2 825 -245 83 -99 97 -109 108 -75 21 67 253 43 267 -28 10 -51 -17 -71 -129 -100 l-97 -24 87 -49 c169 -95 211 -185 219 -466 7 -270 26 -312 174 -382 160 -76 278 -36 469 159 272 278 525 291 791 41 41 -40 76 -69 78 -66 1 3 27 43 57 90 l54 84 0 609 c0 607 0 610 44 641 39 27 168 31 996 31 828 0 957 -4 996 -31z m-2404 -141 c70 -34 73 -79 3 -61 -54 14 -115 -27 -115 -78 0 -60 39 -89 117 -89 68 0 69 -1 33 -40 -44 -48 -180 -54 -239 -9 -66 50 -559 41 -626 -11 -58 -46 -177 -52 -230 -12 -49 37 -44 52 16 52 71 0 129 34 129 77 0 53 -41 83 -114 83 -77 0 -84 25 -22 69 61 42 134 39 206 -9 68 -45 610 -62 610 -19 0 19 107 76 147 78 9 1 47 -13 85 -31z m158 -368 c-7 -11 -5 -20 5 -20 9 0 16 -45 15 -100 -1 -55 5 -100 14 -100 27 0 18 -80 -9 -82 -20 -1 -20 -3 0 -11 15 -6 25 -49 25 -110 0 -55 -8 -94 -18 -88 -10 6 -14 -6 -9 -26 6 -23 -2 -42 -21 -50 -38 -14 -92 4 -92 30 0 11 -8 14 -18 8 -9 -6 -29 3 -42 19 -14 17 -35 30 -47 30 -13 0 -9 -9 7 -20 18 -12 20 -20 6 -20 -13 0 -29 9 -36 20 -7 11 -57 18 -111 14 -54 -3 -101 2 -104 10 -3 9 -31 2 -62 -14 -32 -17 -70 -30 -85 -30 -16 0 -28 -9 -28 -20 0 -11 -12 -20 -27 -20 -15 0 -48 -18 -73 -40 -25 -22 -52 -40 -60 -40 -8 0 -24 -20 -36 -45 -12 -25 -22 -33 -23 -19 -1 21 -6 21 -29 0 -15 -14 -24 -33 -19 -41 5 -8 -5 -15 -22 -15 -18 0 -37 -13 -44 -30 -6 -16 -24 -30 -40 -30 -16 0 -24 -8 -18 -19 16 -25 -62 -47 -118 -33 -52 13 -72 49 -84 152 -4 39 -17 123 -29 187 -11 64 -16 122 -10 127 5 6 -3 24 -20 41 -17 17 -26 42 -20 56 5 14 -4 31 -21 37 -16 7 -24 21 -17 32 7 11 2 20 -10 20 -12 0 -17 8 -11 19 6 10 3 24 -9 31 -19 12 28 130 52 130 7 0 40 -15 75 -33 124 -65 135 -68 159 -53 13 8 46 18 74 22 27 4 56 17 64 30 32 52 483 47 516 -6 12 -20 178 -32 240 -17 16 4 61 36 100 72 73 67 91 79 70 45z m-228 -957 c41 -35 31 -119 -18 -155 -18 -13 -35 -37 -36 -51 -1 -15 -3 -46 -5 -68 -6 -79 -53 -118 -149 -121 -49 -1 -99 -9 -112 -17 -12 -7 -22 -4 -22 8 0 11 -9 21 -19 21 -11 0 -15 -12 -10 -26 10 -26 -17 -32 -160 -33 -43 -1 -85 9 -92 21 -8 13 -52 27 -99 33 -68 7 -82 4 -69 -18 13 -21 11 -22 -12 -4 -16 13 -65 24 -109 23 -114 0 -130 2 -130 19 0 9 79 15 175 15 137 0 174 6 169 28 -4 17 6 23 25 15 17 -6 31 -2 31 10 0 12 18 17 40 11 22 -6 35 -2 29 8 -11 17 19 27 59 19 10 -2 7 11 -7 28 -22 26 -20 31 12 32 39 0 107 43 107 68 0 7 14 27 30 44 17 16 30 24 30 17 0 -7 27 14 60 47 84 84 202 95 282 26z m-1554 -823 l126 0 -9 100 -10 100 112 0 113 0 0 -280 0 -280 -112 0 -113 0 9 110 9 110 -126 0 -127 0 0 -110 0 -110 -106 0 -106 0 1 279 1 279 100 6 100 6 6 -105 6 -105 126 0z m-468 -80 l0 -280 -1150 0 -1150 0 0 280 0 280 1150 0 1150 0 0 -280z m1480 210 l0 -70 -110 0 -110 0 0 -210 0 -210 -113 0 -112 0 9 210 9 210 -96 0 -97 0 0 70 0 70 310 0 310 0 0 -70z m709 39 c24 -25 31 -78 31 -249 0 -284 5 -280 -350 -280 -355 0 -350 -4 -350 280 0 291 -13 280 350 280 234 0 293 -6 319 -31z m772 10 c67 -35 58 -466 -10 -510 -64 -42 -565 -35 -618 8 -47 40 -49 445 -2 492 38 37 564 46 630 10z m2362 -114 l112 -136 -113 -143 -112 -143 -1045 -2 -1045 -1 0 280 0 280 1046 0 1046 0 111 -135z m-7229 -650 c87 -113 166 -295 128 -295 -22 0 -45 18 -52 40 -10 33 -30 40 -111 40 -77 0 -104 -9 -124 -40 -22 -36 -75 -56 -75 -29 0 6 37 78 82 160 80 146 114 174 152 124z m303 -110 l-7 -135 110 0 110 0 -7 135 c-7 126 -4 135 35 135 44 0 61 -158 29 -275 -15 -58 -313 -70 -335 -13 -34 87 -13 288 30 288 39 0 41 -9 35 -135z m703 105 c0 -21 -21 -30 -70 -30 l-70 0 0 -130 c0 -102 -6 -130 -30 -130 -24 0 -30 28 -30 130 l0 130 -69 0 c-67 0 -103 22 -77 47 29 30 346 14 346 -17z m431 9 c7 -11 12 -68 12 -125 0 -193 18 -176 -178 -170 l-175 6 -6 128 c-3 70 -1 140 4 155 13 33 322 39 343 6z m297 -81 l76 -102 68 102 c101 150 128 138 128 -58 0 -202 -54 -239 -64 -45 l-6 115 -60 -95 c-73 -115 -65 -115 -145 1 l-65 94 0 -115 c0 -89 -7 -115 -30 -115 -24 0 -30 31 -30 160 0 194 20 203 128 58z m782 -58 l0 -150 -168 -6 c-196 -7 -201 -3 -202 157 0 150 16 162 210 155 l160 -6 0 -150z m480 0 l0 -150 -155 -6 -155 -6 0 162 0 162 155 -6 155 -6 0 -150z m210 0 c0 -129 -6 -160 -30 -160 -24 0 -30 31 -30 160 0 129 6 160 30 160 24 0 30 -31 30 -160z m220 18 l0 -142 113 7 c78 5 116 -1 122 -18 6 -19 -31 -25 -143 -25 l-152 0 0 160 c0 129 6 160 30 160 24 0 30 -29 30 -142z m640 112 c0 -23 -27 -30 -120 -30 -109 0 -120 -4 -120 -42 0 -37 10 -41 70 -34 48 5 70 0 70 -18 0 -16 -26 -26 -70 -26 -61 0 -70 -6 -70 -50 0 -48 5 -50 130 -50 73 0 130 -9 130 -20 0 -12 -67 -20 -160 -20 l-160 0 0 160 0 160 150 0 c120 0 150 -6 150 -30z m661 -1 c21 -25 20 -35 0 -55 -20 -19 -28 -19 -35 1 -17 46 -226 33 -226 -14 0 -34 16 -40 135 -45 l135 -6 0 -80 0 -80 -160 0 c-144 0 -160 4 -160 38 0 21 11 42 25 47 14 5 25 -6 25 -23 0 -25 23 -32 110 -32 104 0 110 3 110 50 0 48 -5 50 -128 50 -132 0 -152 13 -152 98 0 83 260 124 321 51z m479 1 c0 -24 -28 -30 -130 -30 -117 0 -130 -4 -130 -40 0 -33 13 -40 80 -40 44 0 80 -9 80 -20 0 -11 -36 -20 -80 -20 -72 0 -80 -5 -80 -50 0 -48 5 -50 130 -50 73 0 130 -9 130 -20 0 -12 -67 -20 -160 -20 l-160 0 0 160 0 160 160 0 c129 0 160 -6 160 -30z m430 -70 c0 -79 -6 -91 -46 -97 -43 -6 -41 -9 28 -65 70 -55 71 -58 24 -58 -28 0 -73 25 -106 60 -32 33 -78 60 -104 60 -38 0 -46 -11 -46 -60 0 -40 -10 -60 -30 -60 -24 0 -30 31 -30 161 l0 161 155 -6 155 -6 0 -90z m220 -20 c32 -66 63 -120 70 -120 7 0 38 54 70 120 38 79 69 120 92 120 30 0 22 -26 -48 -160 -105 -199 -123 -199 -230 0 -74 139 -81 160 -49 160 26 0 55 -37 95 -120z m410 -40 c0 -129 -6 -160 -30 -160 -24 0 -30 31 -30 160 0 129 6 160 30 160 24 0 30 -31 30 -160z m476 95 c5 -39 -2 -55 -25 -55 -17 0 -31 14 -31 30 0 23 -24 30 -100 30 l-100 0 0 -110 0 -110 100 0 c87 0 100 5 100 40 0 22 13 40 30 40 20 0 30 -20 30 -61 l0 -61 -155 6 -155 6 -6 128 c-9 185 -9 185 161 178 142 -6 145 -7 151 -61z m459 40 c-5 -15 -55 -27 -132 -31 -108 -5 -123 -11 -123 -47 0 -34 11 -39 73 -34 46 5 76 -2 82 -18 6 -17 -17 -25 -73 -25 -74 0 -82 -5 -82 -50 0 -48 5 -50 130 -50 73 0 130 -9 130 -20 0 -12 -67 -20 -160 -20 l-160 0 0 160 0 160 162 0 c120 0 159 -6 153 -25z" />
    <path d="M1626 6080 c-90 -36 -117 -189 -46 -260 52 -52 181 -54 227 -4 120 133 -15 331 -181 264z m150 -51 c88 -62 30 -229 -80 -229 -24 0 -64 20 -90 43 -121 115 32 282 170 186z" />
    <path d="M1660 6025 c-71 -27 -81 -128 -18 -172 102 -71 206 59 118 147 -42 42 -51 44 -100 25z" />
    <path d="M1085 5635 c-87 -41 -87 -166 0 -214 81 -46 163 3 171 101 9 101 -78 158 -171 113z m131 -39 c52 -52 1 -176 -73 -176 -39 0 -103 58 -103 94 0 91 114 144 176 82z" />
    <path d="M1084 5576 c-64 -64 15 -159 96 -116 68 36 39 140 -40 140 -18 0 -43 -11 -56 -24z" />
    <path d="M5456 5320 l-6 -300 210 0 210 0 57 91 c72 113 81 110 181 -68 l81 -145 39 106 c126 339 186 484 204 490 11 4 78 -183 148 -415 l128 -421 64 176 64 176 292 0 292 0 0 305 0 305 -979 0 -979 0 -6 -300z m712 95 c26 -26 29 -43 14 -72 -11 -21 -15 -43 -8 -50 7 -7 3 -13 -9 -13 -13 0 -28 9 -36 21 -7 12 -23 17 -36 13 -13 -5 -38 4 -56 20 -29 25 -39 22 -88 -23 -30 -28 -67 -51 -82 -51 -15 0 -27 -8 -27 -18 0 -33 -142 -70 -160 -43 -8 14 -22 24 -32 23 -39 -4 -20 204 19 210 20 3 40 8 43 11 27 27 428 2 458 -28z m1063 -8 c30 -40 40 -116 12 -99 -10 6 -15 -11 -12 -39 3 -27 -3 -49 -14 -49 -11 0 -14 -8 -8 -19 6 -10 1 -25 -11 -32 -12 -8 -29 -3 -38 11 -10 16 -19 17 -28 3 -7 -12 -29 -15 -47 -8 -63 24 -344 -10 -302 -37 22 -14 20 -17 -6 -18 -31 0 -67 51 -60 85 2 8 -7 15 -18 15 -12 0 -16 8 -10 19 6 10 3 24 -8 31 -11 6 -19 32 -18 56 2 24 -1 57 -5 72 -19 67 523 75 573 9z" />
    <path d="M2230 5400 c-305 -12 -305 -12 -480 -212 -158 -181 -162 -173 61 -144 225 28 1162 29 1389 1 93 -12 173 -18 177 -14 30 29 -293 347 -364 358 -102 16 -503 22 -783 11z" />
    <path d="M6321 5130 c-129 -352 -119 -345 -221 -160 -95 172 -101 175 -160 80 l-43 -70 -224 0 -223 0 0 -230 0 -230 990 0 990 0 -6 217 -6 218 -104 12 c-57 7 -180 13 -274 13 l-170 0 -71 -194 c-39 -106 -81 -197 -92 -200 -11 -4 -77 180 -146 408 -69 229 -128 418 -130 421 -3 3 -52 -126 -110 -285z m-369 -287 c6 10 19 12 30 6 10 -6 14 -19 9 -28 -6 -9 8 -21 31 -27 23 -6 36 -21 29 -33 -8 -12 2 -21 21 -21 19 0 28 -7 20 -15 -9 -8 -105 -15 -214 -15 l-198 0 0 51 c0 66 19 85 53 56 21 -17 27 -15 27 7 0 24 18 27 91 16 50 -8 95 -6 101 3z m451 -43 c11 0 14 9 7 20 -7 11 1 20 18 20 17 0 28 -16 27 -40 -2 -22 -17 -40 -34 -40 -25 -1 -26 -4 -4 -18 20 -12 13 -20 -26 -30 -29 -7 -61 -8 -70 -3 -25 16 -10 82 17 76 12 -3 23 11 24 30 1 21 5 25 11 10 6 -14 19 -25 30 -25z m813 -10 c26 -26 18 -70 -13 -72 -18 0 -63 -3 -101 -5 -67 -3 -95 23 -76 73 9 25 166 29 190 4z" />
    <path d="M2189 4978 c-51 -26 -172 -222 -150 -245 18 -18 918 -23 936 -5 14 14 -48 132 -108 208 -47 59 -578 92 -678 42z" />
    <path d="M1335 4718 c-43 -25 -47 -143 -7 -184 40 -39 491 -62 527 -27 48 47 -57 113 -279 175 -113 32 -206 58 -206 57 0 0 -16 -9 -35 -21z" />
    <path d="M3426 4683 c-380 -109 -397 -208 -32 -190 284 15 306 24 306 124 0 136 -15 140 -274 66z" />
    <path d="M5670 4460 c8 -13 323 -20 880 -20 557 0 872 7 880 20 8 13 -290 20 -880 20 -590 0 -888 -7 -880 -20z" />
    <path d="M5490 4367 c-52 -8 -329 -374 -387 -511 -3 -9 241 -16 543 -16 l550 0 18 75 17 75 233 6 232 5 14 -80 14 -81 529 0 c292 0 527 7 524 16 -4 9 -78 126 -165 260 l-159 244 -833 0 c-459 0 -887 4 -952 8 -65 4 -145 4 -178 -1z m1379 -147 c19 -60 38 -126 44 -145 9 -33 -38 -35 -802 -35 -446 0 -811 5 -811 10 0 6 40 71 90 145 l89 135 678 0 679 0 33 -110z m233 65 c16 -43 13 -45 -100 -45 -109 0 -173 43 -129 86 33 33 214 1 229 -41z m388 -89 c49 -74 90 -140 90 -145 0 -6 -79 -11 -175 -11 l-175 0 -55 135 c-30 74 -55 140 -55 147 0 7 63 11 140 10 l140 -2 90 -134z m-410 -65 c0 -16 23 -31 53 -35 119 -14 73 -56 -61 -56 -104 0 -132 6 -132 30 0 17 18 30 39 30 27 0 36 10 28 30 -8 21 2 30 31 30 23 0 42 -13 42 -29z" />
    <path d="M6718 4131 c-5 -5 -245 -12 -534 -17 -288 -4 -530 -13 -536 -19 -6 -6 262 -11 595 -11 334 0 585 5 557 10 -27 6 -55 18 -61 28 -7 10 -16 14 -21 9z" />
    <path d="M1680 4305 c0 -89 136 -215 237 -221 59 -3 104 1 100 10 -4 9 -32 63 -62 121 l-56 105 -109 0 c-61 0 -110 -7 -110 -15z" />
    <path d="M2002 4295 c0 -14 26 -65 56 -115 l55 -90 393 -5 393 -6 50 100 c28 55 51 109 51 120 0 14 -169 21 -500 21 -388 0 -500 -6 -498 -25z" />
    <path d="M3050 4221 c-67 -134 -65 -141 47 -141 95 0 98 2 160 101 83 134 81 139 -47 139 l-109 0 -51 -99z" />
    <path d="M4274 5407 c-54 -54 -8 -67 237 -67 229 0 251 3 245 35 -7 36 -448 66 -482 32z" />
    <path d="M4669 3414 c-6 -16 -9 -77 -5 -136 l6 -108 140 0 140 0 0 130 0 130 -135 6 c-103 4 -138 -1 -146 -22z" />
    <path d="M5448 3413 c-6 -15 -8 -76 -4 -135 l6 -108 140 0 140 0 6 135 6 135 -142 0 c-101 0 -144 -8 -152 -27z" />
    <path d="M959 2705 c-15 -30 -31 -62 -35 -70 -4 -8 25 -15 64 -15 82 0 83 1 41 81 -37 72 -36 72 -70 4z" />
    <path d="M2180 2650 l0 -110 120 0 120 0 0 110 0 110 -120 0 -120 0 0 -110z" />
    <path d="M3244 2655 l6 -105 125 -6 125 -6 0 111 0 111 -131 0 -131 0 6 -105z" />
    <path d="M3780 2719 c0 -56 186 -51 196 6 6 30 -9 35 -95 35 -89 0 -101 -5 -101 -41z" />
    <path d="M3780 2590 c0 -47 7 -50 100 -50 93 0 100 3 100 50 0 47 -7 50 -100 50 -93 0 -100 -3 -100 -50z" />
    <path d="M6420 2710 c0 -47 7 -50 100 -50 93 0 100 3 100 50 0 47 -7 50 -100 50 -93 0 -100 -3 -100 -50z" />
  </g>
</svg>